<svg xmlns="http://www.w3.org/2000/svg" x="0px" y="0px" width="64" height="64" viewBox="0,0,256,256">
<g fill="#3c383e" fill-rule="nonzero" stroke="none" stroke-width="1" stroke-linecap="butt" stroke-linejoin="miter" stroke-miterlimit="10" stroke-dasharray="" stroke-dashoffset="0" font-family="none" font-weight="none" font-size="none" text-anchor="none" style="mix-blend-mode: normal"><g transform="scale(4,4)"><path d="M4,0c-2.21,0 -4,1.79 -4,4c0,2.21 1.79,4 4,4c0.26,0 0.51953,-0.03008 0.76953,-0.08008l1.84961,16.81055c0.05,0.44 0.38055,0.78914 0.81055,0.86914l3.67969,0.66992c-1.36,2.5 -2.10937,5.29047 -2.10937,8.23047c0,6.55 3.86086,12.6993 10.13086,16.2793l-2.3418,1.82031c-0.5,-0.38 -1.12906,-0.59961 -1.78906,-0.59961c-1.65,0 -3,1.35 -3,3c0,1.65 1.35,3 3,3c1.3,0 2.41031,-0.84 2.82031,-2h3.54883c0.41,0 0.77164,0.23938 0.93164,0.60938l0.29883,0.73047c-0.95,0.51 -1.59961,1.51016 -1.59961,2.66016c0,1.65 1.35,3 3,3c1.65,0 3,-1.35 3,-3c0,-0.25 -0.02961,-0.50047 -0.09961,-0.73047l3.23047,-1.68945c0.56,-0.29 1.22906,-0.29953 1.78906,-0.01953l3.2207,1.54883c-0.09,0.28 -0.14062,0.58062 -0.14062,0.89063c0,1.65 1.35,3 3,3c1.65,0 3,-1.35 3,-3c0,-1.28 -0.80922,-2.38078 -1.94922,-2.80078l0.12891,-0.42969c0.12,-0.44 0.53023,-0.74047 0.99023,-0.73047l4.07031,0.13086c0.46,1.08 1.52977,1.83008 2.75977,1.83008c1.65,0 3,-1.35 3,-3c0,-1.65 -1.35,-3 -3,-3c-0.67,0 -1.30078,0.22961 -1.80078,0.59961l-1.76953,-1.56055c6.56,-3.56 10.57031,-9.77906 10.57031,-16.53906c0,-3.01 -0.78945,-5.85039 -2.18945,-8.40039l2.75977,-0.5c0.43,-0.08 0.76055,-0.42914 0.81055,-0.86914l1.84961,-16.81055c0.25,0.05 0.50953,0.08008 0.76953,0.08008c2.21,0 4,-1.79 4,-4c0,-2.21 -1.79,-4 -4,-4c-1.97,0 -3.59969,1.42078 -3.92969,3.30078c-0.02,0.11 -0.04078,0.22984 -0.05078,0.33984c-0.01,0.12 -0.01953,0.23937 -0.01953,0.35938c0,0.12 0.00953,0.23937 0.01953,0.35938c0.02,0.29 0.07992,0.58133 0.16992,0.86133l-15.60937,7.83008c-0.4,0.2 -0.62102,0.64008 -0.54102,1.08008l0.33008,1.80859c-2.16,-0.61 -4.46914,-0.93945 -6.86914,-0.93945c-2.79,0 -5.45969,0.43977 -7.92969,1.25977l0.39063,-2.12891c0.08,-0.44 -0.14102,-0.88008 -0.54102,-1.08008l-15.60938,-7.83008c0.09,-0.28 0.14992,-0.57133 0.16992,-0.86133c0.01,-0.12 0.01953,-0.23937 0.01953,-0.35937c0,-0.12 -0.00953,-0.23937 -0.01953,-0.35937c-0.01,-0.11 -0.02078,-0.22984 -0.05078,-0.33984c-0.33,-1.88 -1.95969,-3.30078 -3.92969,-3.30078zM4,2c1,0 1.8307,0.73922 1.9707,1.69922c0.02,0.1 0.0293,0.20078 0.0293,0.30078c0,0.1 -0.0093,0.20078 -0.0293,0.30078c-0.14,0.96 -0.9707,1.69922 -1.9707,1.69922c-1.1,0 -2,-0.9 -2,-2c0,-1.1 0.9,-2 2,-2zM58,2c1.1,0 2,0.9 2,2c0,1.1 -0.9,2 -2,2c-1,0 -1.8307,-0.73922 -1.9707,-1.69922c-0.02,-0.1 -0.0293,-0.20078 -0.0293,-0.30078c0,-0.1 0.0093,-0.20078 0.0293,-0.30078c0.14,-0.96 0.9707,-1.69922 1.9707,-1.69922zM6.66992,6.89063l0.06055,0.0293l14.44922,7.25977c0.4,0.19 0.62101,0.63055 0.54102,1.06055l-0.33008,1.84961c-3.79,1.65 -6.97039,4.20961 -9.15039,7.34961l-2.98047,-0.53906c-0.44,-0.08 -0.77031,-0.43109 -0.82031,-0.87109l-1.75977,-16.05859zM55.33008,6.89063l-0.00977,0.08008l-1.75977,16.05859c-0.05,0.44 -0.38031,0.79109 -0.82031,0.87109l-2.08984,0.37891c-2.39,-3.35 -5.92109,-6.03891 -10.12109,-7.62891l-0.25,-1.41016c-0.08,-0.43 0.14102,-0.87055 0.54102,-1.06055l14.44922,-7.25977zM60.52734,9.73633c-0.548,-0.065 -1.04533,0.327 -1.11133,0.875c-0.066,0.548 0.32505,1.04533 0.87305,1.11133l1.98633,0.23828c0.548,0.066 1.04728,-0.32505 1.11328,-0.87305c0.066,-0.548 -0.327,-1.04728 -0.875,-1.11328zM59.93164,14.70117c-0.547,-0.066 -1.04533,0.326 -1.11133,0.875c-0.066,0.548 0.32505,1.04533 0.87305,1.11133l1.98633,0.23828c0.548,0.066 1.04728,-0.32505 1.11328,-0.87305c0.066,-0.548 -0.327,-1.04728 -0.875,-1.11328zM31.5,17c2.56,0 4.99977,0.40063 7.25977,1.14063c0.75,0.24 1.47945,0.51984 2.18945,0.83984c3.02,1.34 5.6,3.29945 7.5,5.68945c0.46,0.58 0.89172,1.18055 1.26172,1.81055c1.46,2.4 2.28906,5.12953 2.28906,8.01953c0,4.56 -2.09016,8.85055 -5.66016,12.06055c0.7,-1.53 1.13922,-3.33992 0.69922,-5.16992c-0.62,-2.61 -2.82812,-4.67086 -6.57812,-6.13086c-0.52,-0.2 -1.09086,-0.24891 -1.63086,-0.12891c-2.54,0.54 -5.21094,1.54992 -6.71094,2.16992c-0.49,0.2 -1.0393,0.19852 -1.5293,-0.02148c-1.4,-0.61 -3.85055,-1.58891 -6.31055,-2.12891c-0.58,-0.13 -1.19023,-0.10063 -1.74023,0.10938c-3.75,1.47 -5.95812,3.52086 -6.57812,6.13086c-0.44,1.83 -0.00055,3.63016 0.68945,5.16016c-3.56,-3.22 -5.65039,-7.54078 -5.65039,-12.05078c0,-2.82 0.78945,-5.49937 2.18945,-7.85937c0.37,-0.63 0.78023,-1.23055 1.24024,-1.81055c1.68,-2.16 3.90953,-3.99008 6.51953,-5.33008c0.71,-0.37 1.4507,-0.70047 2.2207,-0.98047c2.54,-0.98 5.37008,-1.51953 8.33008,-1.51953zM59.33789,19.66602c-0.548,-0.066 -1.04828,0.32505 -1.11328,0.87305c-0.066,0.548 0.327,1.04728 0.875,1.11328l1.98633,0.23828c0.548,0.066 1.04533,-0.327 1.11133,-0.875c0.066,-0.548 -0.327,-1.04533 -0.875,-1.11133zM31,23c-3.58,0 -6.5,2.47 -6.5,5.5c0,1.92 1.13,3.64086 3,4.63086v0.86914c0,0.55 0.45,1 1,1h5c0.55,0 1,-0.45 1,-1v-0.86914c1.87,-0.99 3,-2.71086 3,-4.63086c0,-3.03 -2.92,-5.5 -6.5,-5.5zM31,25c2.48,0 4.5,1.57 4.5,3.5c0,1.52 -1.11047,2.42039 -1.98047,2.90039c-0.63,0.34 -1.00953,1.00875 -1.01953,1.71875h-3c-0.01,-0.71 -0.38953,-1.37875 -1.01953,-1.71875c-0.87,-0.48 -1.98047,-1.38039 -1.98047,-2.90039c0,-1.93 2.02,-3.5 4.5,-3.5zM28.55469,27.58789c-0.40191,0.04008 -0.79763,0.35006 -0.98438,0.82031c-0.249,0.627 -0.03448,1.30186 0.47852,1.50586c0.513,0.204 1.13186,-0.14058 1.38086,-0.76758c0.25,-0.628 0.03448,-1.29991 -0.47852,-1.50391c-0.12825,-0.051 -0.26252,-0.06805 -0.39648,-0.05469zM33.44531,27.58789c-0.13397,-0.01328 -0.26823,0.00369 -0.39648,0.05469c-0.513,0.204 -0.72752,0.87691 -0.47852,1.50391c0.249,0.627 0.86786,0.97158 1.38086,0.76758c0.513,-0.204 0.72752,-0.87886 0.47852,-1.50586c-0.18675,-0.471 -0.58247,-0.78047 -0.98438,-0.82031zM23.52344,37.00586c0.2,-0.01625 0.4007,-0.00008 0.5957,0.04492c3.36,0.79 6.71,2.43899 6.75,2.45898c0.28,0.14 0.62039,0.13977 0.90039,0.00977c0.04,-0.02 3.69133,-1.67875 7.11133,-2.46875c0.39,-0.09 0.80969,-0.06039 1.17969,0.09961c2.89,1.19 4.5793,2.74867 5.0293,4.63867c0.88,3.66 -3.03031,7.58109 -3.07031,7.62109c-0.05,0.05 -0.06961,0.10016 -0.09961,0.16016c-0.23,0.11 -0.45945,0.22984 -0.68945,0.33984c-2.93,1.35 -6.24984,2.06984 -9.58984,2.08984c-1.63,-0.01 -3.24055,-0.1707 -4.81055,-0.4707c-2.03,-0.41 -4.00055,-1.07023 -5.81055,-1.99023c-0.21,-0.11 -0.41914,-0.22984 -0.61914,-0.33984c-0.91,-1.15 -3.20023,-4.44016 -2.49023,-7.41016c0.45,-1.89 2.1393,-3.44867 5.0293,-4.63867c0.185,-0.08 0.38398,-0.12828 0.58398,-0.14453zM21.85938,40.5293c-0.39,0 -0.75992,0.23109 -0.91992,0.62109c-0.18,0.45 -0.00984,0.95898 0.41016,1.20898l0.83008,0.5c-0.08,0.22 -0.13945,0.43969 -0.18945,0.67969c-0.34,1.66 0.26984,3.11039 1.33984,3.40039c1.65,0.45 2.44953,-1.87922 2.76953,-3.19922c0.1,-0.43 -0.07898,-0.87938 -0.45898,-1.10937l-2.30078,-1.37109l-0.9707,-0.58984c-0.16,-0.1 -0.33977,-0.14062 -0.50977,-0.14062zM40.89258,40.5293c-0.17,0 -0.34976,0.04062 -0.50977,0.14063l-0.9707,0.58984l-2.30078,1.37109c-0.38,0.23 -0.55898,0.67938 -0.45898,1.10938c0.32,1.32 1.11953,3.64922 2.76953,3.19922c1.07,-0.29 1.67984,-1.74039 1.33984,-3.40039c-0.05,-0.24 -0.10945,-0.45969 -0.18945,-0.67969l0.83008,-0.5c0.42,-0.25 0.59016,-0.75898 0.41016,-1.20898c-0.16,-0.39 -0.52992,-0.62109 -0.91992,-0.62109zM31.00586,47c-1.10158,0 -1.99459,0.62654 -1.99459,1.39941c0,0.77288 0.89301,1.39941 1.99459,1.39941c1.10158,0 1.99459,-0.62654 1.99459,-1.39941c0,-0.77288 -0.89301,-1.39941 -1.99459,-1.39941zM21,51.85938c1.46,0.62 3.00961,1.10094 4.59961,1.46094c0.33,0.07 0.66047,0.13922 0.98047,0.19922c1.61,0.31 3.25992,0.48047 4.91992,0.48047h0.28906c3.44,0 6.87117,-0.61906 9.95117,-1.78906l2.20898,1.94922l-5.2793,-0.16016c-0.46,-0.01 -0.87023,0.29047 -0.99023,0.73047l-0.69922,2.45898l-0.15039,0.50977l-0.46094,-0.21875l-4.48828,-2.16016c-0.57,-0.28 -1.23101,-0.27047 -1.79102,0.01953l-4.31055,2.25l-0.68945,0.36328c-0.03197,-0.0239 -0.0605,-0.05201 -0.09375,-0.07422l-0.33594,-0.79883l-1.04102,-2.4707c-0.16,-0.37 -0.51992,-0.60937 -0.91992,-0.60937h-4.44922z"></path></g></g>
</svg>